<svg width="16" height="21" viewBox="0 0 16 21" fill="none" xmlns="http://www.w3.org/2000/svg">
<path d="M8.33339 0.0938721C4.22725 0.0938721 0.893921 3.42721 0.893921 7.53334C0.893921 8.86667 1.2408 10.1198 1.85435 11.2136L2.62725 12.3334L8.33339 20.5729L14.147 12.2001L14.7334 11.3469C15.4001 10.2272 15.773 8.94694 15.773 7.56054C15.773 3.42721 12.4395 0.0938721 8.33339 0.0938721ZM8.33339 9.58667C7.2136 9.58667 6.28027 8.68043 6.28027 7.53355C6.28027 6.38667 7.18651 5.48043 8.33339 5.48043C9.48027 5.48043 10.3865 6.38667 10.3865 7.53355C10.3865 8.68043 9.45317 9.58667 8.33339 9.58667Z" fill="#30BB96"/>
</svg>
